<?xml version="1.0" standalone="no"?>
<!DOCTYPE svg PUBLIC "-//W3C//DTD SVG 20010904//EN"
 "http://www.w3.org/TR/2001/REC-SVG-20010904/DTD/svg10.dtd">
<svg version="1.0" xmlns="http://www.w3.org/2000/svg"
 width="1350.000000pt" height="671.000000pt" viewBox="0 0 1350.000000 671.000000"
 preserveAspectRatio="xMidYMid meet">

<g transform="translate(0.000000,671.000000) scale(0.100000,-0.100000)"
fill="#000000" stroke="none">
<path d="M2870 6627 c0 -7 616 -341 2420 -1312 580 -312 1087 -585 1127 -606
40 -21 79 -39 87 -39 20 0 817 425 2541 1355 939 506 1089 589 1077 593 -10 3
-1794 -352 -1840 -366 -18 -6 -29 -24 -46 -74 -37 -110 -91 -175 -186 -223
-58 -30 -169 -49 -230 -40 -72 11 -169 64 -232 128 l-56 57 -134 -25 c-73 -13
-149 -27 -168 -31 -27 -5 -60 -31 -140 -109 -58 -56 -124 -116 -146 -133 -55
-42 -173 -97 -254 -119 -89 -24 -280 -23 -370 1 -153 42 -295 135 -422 277
-61 68 -62 68 -147 88 -47 11 -139 30 -203 42 l-117 22 -64 -66 c-92 -95 -172
-132 -287 -131 -65 0 -99 5 -143 23 -111 44 -220 174 -234 280 -4 31 -11 42
-27 46 -11 3 -415 84 -896 181 -481 96 -883 177 -892 180 -10 3 -18 3 -18 1z"/>
<path d="M5790 3625 l0 -795 175 0 175 0 0 795 0 795 -175 0 -175 0 0 -795z"/>
<path d="M9510 3625 l0 -795 174 0 174 0 4 293 c3 282 4 294 27 340 44 91 139
127 221 85 81 -41 84 -54 88 -410 l4 -308 175 0 176 0 -5 368 -5 367 -36 71
c-49 96 -77 128 -149 163 -57 29 -69 31 -171 31 -60 0 -127 -5 -149 -12 -21
-6 -70 -38 -109 -70 l-69 -58 0 365 0 365 -175 0 -175 0 0 -795z"/>
<path d="M240 4110 l0 -160 155 0 155 0 0 -560 0 -560 190 0 190 0 0 560 0
559 153 3 152 3 3 158 3 157 -501 0 -500 0 0 -160z"/>
<path d="M6274 4257 c-2 -7 -3 -78 -2 -157 l3 -145 158 -3 157 -3 0 -559 0
-560 185 0 185 0 0 560 0 559 158 3 157 3 0 155 0 155 -498 3 c-402 2 -499 0
-503 -11z"/>
<path d="M10800 3549 l0 -722 348 6 c375 6 451 15 549 62 57 28 139 111 169
172 16 32 19 60 19 173 0 127 -2 138 -27 186 -37 70 -107 130 -177 151 -31 9
-58 18 -60 20 -2 1 18 27 46 56 27 29 56 63 63 77 20 37 29 156 20 244 -11 90
-43 151 -110 205 -83 67 -113 74 -350 82 -118 4 -277 8 -352 8 l-138 1 0 -721z
m548 395 c33 -22 62 -74 62 -112 0 -70 -58 -112 -172 -126 l-58 -7 0 137 0
137 73 -7 c39 -4 82 -14 95 -22z m96 -538 c85 -35 106 -154 39 -218 -41 -40
-77 -50 -195 -55 l-108 -6 0 153 0 153 114 -6 c64 -3 130 -13 150 -21z"/>
<path d="M12090 3550 l0 -720 253 0 c301 0 413 11 522 48 218 75 403 277 462
502 22 86 22 244 0 330 -9 36 -38 108 -64 160 -38 78 -61 109 -127 175 -189
187 -325 224 -823 225 l-223 0 0 -720z m497 400 c50 -5 116 -19 147 -30 76
-29 148 -96 188 -177 31 -64 32 -71 33 -192 0 -123 -1 -128 -32 -192 -71 -144
-211 -219 -410 -219 l-53 0 0 410 c0 384 1 410 18 410 9 0 58 -5 109 -10z"/>
<path d="M8930 4199 c-127 -33 -215 -82 -305 -173 -138 -139 -195 -282 -195
-491 0 -248 99 -444 288 -569 141 -92 260 -122 455 -113 181 8 177 6 177 77
l0 57 -71 7 c-306 31 -496 259 -475 572 11 170 51 269 148 367 80 80 175 125
302 140 l96 11 0 41 c0 80 -36 94 -230 94 -81 0 -137 -6 -190 -20z m-92 -201
c-111 -127 -151 -217 -168 -381 -23 -224 37 -409 184 -566 l51 -54 -45 24
c-25 13 -80 59 -122 101 -121 121 -172 248 -171 423 2 196 93 364 262 484 67
47 69 38 9 -31z"/>
<path d="M2433 3825 c-218 -59 -364 -260 -365 -500 -1 -217 106 -395 289 -483
76 -36 81 -37 193 -37 110 0 118 1 182 33 37 18 78 46 92 63 l26 31 0 -51 0
-51 175 0 175 0 0 485 0 485 -175 0 -175 0 0 -41 0 -41 -31 27 c-47 39 -104
65 -178 81 -82 17 -141 17 -208 -1z m302 -304 c112 -50 156 -188 101 -308 -69
-147 -291 -161 -383 -25 -78 117 -34 276 92 333 52 24 138 24 190 0z"/>
<path d="M4946 3824 c-187 -45 -339 -193 -375 -362 -18 -86 -14 -251 8 -321
48 -155 174 -271 342 -317 30 -8 99 -17 154 -21 167 -10 308 29 412 113 43 36
106 129 118 176 6 24 4 27 -28 33 -19 4 -91 5 -160 3 -111 -3 -128 -5 -149
-24 -67 -62 -178 -76 -265 -33 -39 19 -53 34 -75 78 -16 30 -28 70 -28 88 l0
33 366 0 365 0 -6 73 c-3 39 -11 95 -17 122 -29 136 -124 261 -242 316 -116
54 -297 73 -420 43z m255 -229 c34 -18 101 -93 96 -108 -3 -9 -57 -13 -188
-15 -101 -1 -189 0 -197 3 -19 7 9 56 55 94 60 50 165 61 234 26z"/>
<path d="M7605 3830 c-169 -34 -321 -156 -377 -302 -27 -73 -40 -208 -28 -304
27 -210 177 -362 402 -408 209 -43 428 5 541 119 48 47 117 169 103 182 -4 4
-76 8 -159 8 l-152 0 -43 -32 c-92 -67 -237 -61 -304 14 -26 28 -48 88 -48
128 l0 35 363 0 363 0 -4 68 c-5 97 -28 186 -63 253 -40 74 -132 162 -204 195
-98 45 -281 66 -390 44z m222 -231 c31 -10 113 -89 113 -109 0 -17 -41 -21
-219 -18 -127 2 -175 6 -178 15 -3 7 15 33 39 59 65 68 142 85 245 53z"/>
<path d="M1850 3819 c-73 -14 -146 -56 -195 -112 l-45 -52 0 73 0 72 -175 0
-175 0 0 -485 0 -485 174 0 173 0 6 253 c6 293 14 334 76 390 48 43 81 51 211
45 l100 -4 0 158 0 158 -52 -1 c-29 -1 -73 -5 -98 -10z"/>
<path d="M3290 3805 c0 -4 113 -223 252 -486 l251 -478 41 -6 c23 -4 74 -5
115 -3 l73 3 249 475 c137 261 249 478 249 483 0 4 -86 6 -190 5 l-190 -3
-110 -234 c-60 -129 -112 -236 -114 -239 -9 -8 -44 60 -143 271 l-97 207 -147
0 c-80 0 -167 3 -193 6 -25 4 -46 3 -46 -1z"/>
<path d="M9700 2120 c-6 -11 -29 -73 -51 -137 -46 -133 -49 -138 -175 -289
-167 -199 -242 -250 -356 -242 -51 4 -65 9 -85 32 -13 16 -23 38 -21 49 3 24
22 30 134 45 96 13 141 36 175 91 39 61 45 101 23 148 -29 58 -74 83 -151 83
-39 0 -80 -7 -101 -17 -21 -9 -94 -75 -164 -146 -122 -124 -129 -129 -159
-123 -18 3 -34 8 -36 10 -3 2 9 30 26 63 39 75 45 102 31 138 -21 56 -48 75
-105 75 -49 0 -55 -3 -95 -46 l-42 -46 4 -73 c3 -50 11 -83 26 -107 l21 -34
-47 -46 c-88 -86 -170 -123 -185 -85 -4 12 22 121 79 330 19 71 14 99 -19 105
-20 4 -38 -15 -207 -213 -166 -194 -202 -233 -207 -219 -2 7 17 92 42 190 25
99 45 190 43 204 -4 29 -30 38 -64 20 -19 -11 -29 -10 -57 4 -49 23 -148 21
-196 -4 -21 -10 -94 -79 -162 -151 -271 -290 -289 -305 -289 -246 0 12 29 89
65 172 36 82 65 155 65 162 0 7 -14 23 -31 35 -26 19 -29 27 -24 54 5 31 -13
64 -35 64 -12 0 -124 -119 -226 -240 -212 -253 -261 -298 -278 -255 -3 9 12
85 34 171 22 85 40 156 40 159 0 2 27 7 61 11 69 8 92 24 80 57 -6 16 -19 23
-49 28 -23 3 -45 8 -48 12 -4 4 -2 28 3 54 13 53 3 83 -26 83 -26 0 -35 -13
-71 -108 -25 -66 -52 -108 -126 -201 -121 -153 -136 -191 -77 -191 19 0 40 15
74 53 27 28 49 50 49 47 0 -3 -7 -30 -15 -60 -23 -85 -20 -153 8 -186 19 -22
34 -28 81 -32 l58 -5 50 54 c28 30 98 110 156 179 120 142 183 210 194 210 17
0 7 -42 -28 -121 -97 -221 -98 -294 -4 -319 60 -16 97 5 210 122 l100 103 0
-55 c0 -67 24 -116 71 -148 31 -22 41 -23 114 -18 98 8 107 8 171 0 73 -8 96
7 215 141 56 63 105 115 109 115 4 0 1 -26 -6 -57 -23 -96 -19 -140 15 -174
26 -25 37 -29 86 -29 75 0 110 18 199 101 l74 69 89 -6 89 -7 37 33 37 32 0
-44 c0 -67 36 -128 90 -155 35 -18 61 -23 125 -23 116 0 170 28 309 161 83 79
108 98 104 79 -43 -188 -43 -213 -2 -232 12 -6 35 -7 50 -4 50 13 234 207 279
295 17 33 17 35 -1 48 -10 7 -22 13 -28 13 -6 0 -42 -35 -81 -77 -38 -43 -91
-100 -117 -128 l-47 -50 35 120 c60 210 135 517 130 531 -8 21 -54 17 -66 -6z
m-1757 -320 c36 -29 40 -64 18 -152 -37 -142 -83 -198 -164 -198 -51 0 -97 43
-97 92 0 42 42 160 73 207 44 66 121 89 170 51z m757 5 c10 -12 7 -25 -15 -70
-29 -60 -39 -67 -49 -32 -11 42 -6 77 14 97 24 24 33 25 50 5z m546 -6 c21
-17 17 -76 -5 -98 -25 -25 -82 -41 -148 -41 -44 0 -53 3 -53 18 0 32 59 112
93 128 35 15 90 12 113 -7z"/>
<path d="M6035 1929 c-24 -22 -126 -137 -227 -255 -100 -118 -186 -214 -190
-214 -13 0 -10 21 38 204 25 98 44 190 42 205 -3 29 -37 41 -56 19 -6 -7 -36
-90 -66 -185 -31 -94 -66 -183 -77 -197 -42 -53 -113 -71 -157 -40 -33 23 -29
101 12 259 29 111 33 133 22 150 -24 36 -42 28 -117 -57 -141 -158 -184 -198
-214 -198 -25 0 -27 3 -21 28 4 15 9 57 13 94 l6 68 -39 39 c-38 38 -41 39
-131 46 -88 7 -95 6 -136 -18 -50 -29 -111 -93 -282 -292 -65 -76 -120 -134
-122 -128 -2 6 17 87 42 181 51 193 58 239 34 255 -34 22 -47 -1 -104 -178
-48 -151 -62 -183 -94 -217 -30 -32 -45 -41 -83 -45 -37 -4 -49 -2 -67 16 -30
30 -27 70 16 247 30 127 34 155 24 168 -30 35 -54 15 -202 -167 -117 -144
-117 -144 -91 -169 l21 -21 35 27 c20 15 40 35 45 45 6 10 21 25 34 34 l24 16
-9 -47 c-5 -26 -6 -72 -3 -102 6 -45 13 -60 41 -86 32 -31 116 -59 146 -50 40
13 68 15 68 7 0 -6 -9 -36 -21 -66 -34 -92 -94 -115 -190 -74 -57 25 -82 15
-77 -30 4 -39 74 -71 153 -71 91 0 123 26 325 258 96 110 178 201 183 201 4 1
7 -23 7 -51 0 -109 59 -168 167 -168 83 0 125 22 193 99 l52 61 60 0 61 0 63
68 c50 52 62 61 54 39 -15 -43 -12 -154 5 -191 34 -71 148 -99 242 -61 39 15
44 15 65 1 25 -18 80 -21 108 -6 11 6 98 102 194 214 153 178 190 216 213 216
11 0 -6 -47 -56 -162 -79 -179 -78 -254 5 -277 76 -21 128 14 254 171 77 95
99 135 85 157 -15 26 -47 3 -165 -121 -122 -127 -150 -145 -150 -98 0 11 29
87 65 169 36 83 65 156 65 164 0 7 -13 26 -29 41 -24 23 -29 35 -24 57 5 28
-10 59 -28 59 -5 0 -29 -18 -54 -41z m-1225 -174 c0 -65 18 -114 60 -162 29
-32 29 -35 15 -62 -32 -63 -140 -100 -185 -63 -21 17 -24 27 -23 73 2 71 36
176 73 227 43 60 60 56 60 -13z m144 29 c6 -14 -9 -97 -20 -116 -10 -16 -33
13 -40 49 -4 19 -2 45 5 59 12 27 46 32 55 8z"/>
<path d="M9986 1078 c-8 -13 -29 -70 -47 -127 -37 -119 -59 -154 -203 -329
-126 -153 -186 -214 -186 -189 0 10 21 100 46 202 26 101 44 191 41 199 -8 19
-63 22 -69 4 -3 -9 -16 -7 -48 7 -57 26 -151 26 -200 0 -44 -23 -117 -99 -245
-255 -106 -129 -151 -177 -160 -169 -2 3 18 89 45 192 55 205 57 219 35 237
-28 23 -58 -3 -213 -182 -177 -205 -183 -211 -246 -239 -58 -25 -118 -21 -150
11 -28 27 -26 104 3 193 35 104 81 147 156 147 39 0 75 -28 75 -58 0 -54 56
-66 78 -16 21 46 15 80 -22 112 -48 42 -118 57 -193 42 -54 -12 -63 -18 -153
-109 -52 -53 -135 -140 -185 -193 -95 -103 -143 -133 -228 -144 -65 -9 -115
10 -135 52 -22 47 -11 54 102 70 114 16 167 41 202 94 53 79 37 171 -37 215
-45 26 -149 27 -199 0 -38 -20 -153 -132 -267 -260 l-71 -80 19 95 c12 57 17
110 13 133 -7 43 -43 91 -86 113 -29 15 -47 16 -197 11 l-65 -2 -30 -52 c-43
-72 -196 -263 -211 -263 -14 0 -76 113 -100 181 -12 34 -13 48 -3 76 10 28 10
36 -4 49 -26 26 -53 9 -142 -94 -159 -185 -177 -219 -133 -246 16 -10 30 1
101 77 45 48 87 87 93 87 15 0 81 -117 88 -156 7 -38 -24 -89 -60 -98 -17 -4
-49 0 -81 10 -60 19 -88 9 -82 -29 5 -36 53 -61 123 -65 88 -6 148 24 249 124
43 42 80 74 83 71 2 -3 -12 -65 -32 -139 -20 -73 -43 -164 -50 -203 -12 -62
-12 -72 2 -87 9 -10 20 -18 24 -18 19 0 58 102 99 257 l11 42 46 -24 c51 -28
109 -32 195 -14 73 15 128 49 218 135 l77 74 11 -67 c19 -114 88 -159 230
-151 100 6 153 34 267 140 l84 79 6 -48 c9 -69 23 -99 61 -133 39 -34 85 -45
159 -37 94 10 193 79 305 212 35 42 64 74 66 72 2 -2 -8 -43 -21 -92 -32 -115
-32 -159 -3 -179 60 -42 132 -7 242 119 l60 68 11 -55 c12 -63 44 -112 87
-134 24 -12 47 -15 102 -10 39 4 85 6 101 6 17 -1 57 -2 89 -3 l59 -2 124 130
c85 89 123 122 119 105 -27 -104 -38 -171 -32 -194 9 -37 46 -53 85 -37 27 12
175 155 251 244 18 21 34 36 36 35 1 -2 -8 -48 -22 -103 -29 -121 -30 -139 -4
-165 30 -30 88 -26 136 9 37 26 154 151 253 268 23 28 49 49 56 47 20 -8 85
-143 85 -176 0 -34 -47 -88 -77 -88 -11 0 -41 7 -67 16 -46 16 -49 16 -68 -4
-66 -65 121 -122 231 -70 29 13 88 63 159 136 61 63 112 113 112 111 0 -2 -7
-29 -15 -59 -36 -134 -1 -210 96 -210 48 0 79 23 164 120 145 167 167 208 123
231 -24 13 -33 4 -196 -179 -47 -53 -81 -82 -94 -82 -19 0 -20 4 -15 52 6 59
64 277 78 294 5 6 34 14 65 16 63 5 79 17 70 51 -5 21 -14 26 -56 32 -55 8
-55 7 -39 71 13 49 2 74 -32 74 -21 0 -38 -29 -70 -117 -23 -63 -68 -126 -192
-271 -93 -107 -81 -109 -149 34 -39 83 -43 111 -24 155 8 18 -17 49 -39 49
-13 0 -125 -119 -282 -300 -50 -58 -100 -114 -112 -124 -21 -19 -21 -19 -21 0
0 11 20 95 45 186 25 92 45 178 45 191 0 30 -23 51 -48 43 -10 -4 -87 -84
-169 -179 -83 -94 -165 -185 -181 -201 l-31 -28 20 63 c39 123 149 570 144
580 -11 18 -54 9 -69 -13z m-2566 -313 c17 -9 33 -27 36 -42 11 -41 -12 -141
-48 -213 -52 -103 -123 -126 -189 -60 -36 35 -38 75 -8 163 27 81 55 125 93
148 38 23 77 24 116 4z m573 6 c51 -20 41 -98 -16 -127 -38 -20 -177 -32 -177
-15 0 6 11 34 25 62 39 75 101 105 168 80z m1491 -12 c22 -17 26 -28 26 -69 0
-55 -30 -159 -60 -208 -46 -74 -130 -93 -182 -41 -29 28 -30 33 -25 87 8 76
70 199 116 230 42 28 90 28 125 1z"/>
<path d="M8969 1026 c-10 -20 -9 -30 5 -51 24 -37 76 -32 90 8 14 39 -2 61
-47 65 -31 3 -39 -1 -48 -22z"/>
<path d="M10292 1038 c-7 -7 -12 -24 -12 -38 0 -33 17 -50 50 -50 14 0 31 5
38 12 18 18 15 75 -4 82 -25 10 -59 7 -72 -6z"/>
<path d="M4297 1005 c-9 -8 -25 -43 -36 -78 -27 -79 -55 -124 -158 -253 -171
-212 -263 -294 -263 -234 0 11 29 88 65 172 36 83 65 156 65 163 0 6 -13 24
-29 39 -24 23 -28 34 -24 60 6 39 -16 63 -45 47 -28 -15 -132 -128 -268 -291
-149 -179 -186 -218 -191 -203 -2 6 16 91 41 189 54 210 56 234 21 234 -14 0
-33 -5 -43 -11 -14 -9 -25 -8 -49 4 -50 26 -105 31 -165 13 -47 -13 -66 -28
-149 -113 -52 -54 -121 -128 -153 -166 -33 -37 -61 -66 -63 -64 -2 2 3 33 12
68 22 96 20 169 -8 209 -33 50 -75 71 -139 70 -116 -2 -174 -6 -185 -13 -6 -4
-25 -31 -41 -60 -17 -29 -58 -88 -91 -130 -69 -87 -86 -118 -78 -141 9 -23 47
-20 74 6 13 12 26 19 29 15 3 -3 -14 -82 -39 -174 -57 -207 -63 -242 -45 -266
31 -42 61 7 107 178 12 44 24 85 26 92 3 9 17 5 47 -12 48 -27 101 -32 188
-15 81 15 136 48 227 134 l83 78 0 -53 c0 -68 32 -127 80 -152 28 -15 49 -17
105 -12 87 7 118 7 175 0 33 -4 54 -1 77 12 35 20 131 124 276 300 88 107 113
130 125 118 9 -8 -11 -67 -58 -178 -22 -54 -44 -120 -47 -147 -5 -45 -3 -51
25 -79 24 -25 39 -31 72 -31 22 0 53 6 69 14 15 8 76 69 135 136 60 66 110
119 112 118 2 -2 -3 -26 -11 -53 -8 -26 -15 -70 -15 -96 0 -40 5 -55 29 -81
27 -30 35 -33 86 -33 57 0 57 0 111 60 30 33 84 95 121 138 36 42 68 75 71 73
2 -3 -8 -50 -22 -106 -32 -124 -32 -146 -4 -161 30 -16 52 13 78 104 56 195
99 278 163 317 35 22 78 26 108 10 27 -15 25 -65 -11 -212 -37 -150 -38 -191
-8 -212 30 -22 86 -20 124 3 17 10 67 60 110 110 l79 91 12 -67 c20 -107 81
-152 205 -153 138 0 223 56 411 270 118 136 152 170 168 170 17 0 9 -27 -35
-127 -83 -186 -91 -252 -39 -293 31 -24 92 -26 132 -5 56 28 241 253 241 292
0 11 -7 27 -16 34 -14 11 -32 -4 -141 -119 -118 -125 -163 -157 -163 -116 0
15 29 88 104 262 l36 84 -34 30 c-30 27 -33 34 -29 69 4 30 2 40 -11 45 -31
12 -62 -16 -187 -164 -193 -227 -273 -305 -342 -330 -67 -26 -126 -28 -166 -7
-33 17 -60 70 -43 87 6 6 54 17 106 24 53 7 114 23 136 34 81 41 121 149 82
220 -29 52 -74 75 -152 75 -107 0 -159 -42 -379 -300 -105 -123 -141 -158
-141 -136 0 7 14 66 30 131 17 65 30 140 30 167 0 116 -87 166 -216 125 -52
-16 -64 -17 -79 -5 -11 7 -25 13 -31 13 -7 0 -82 -80 -166 -177 -248 -288
-276 -310 -265 -210 6 58 64 276 78 293 5 6 34 14 65 16 63 5 79 17 70 51 -5
21 -14 26 -56 32 -55 8 -55 7 -39 71 10 39 9 47 -6 64 -22 24 -29 25 -48 5z
m-1525 -255 c28 -28 29 -33 23 -82 -29 -209 -147 -316 -240 -218 -26 27 -27
33 -22 89 5 64 44 161 80 200 48 51 114 55 159 11z m575 10 c33 -30 36 -55 19
-133 -23 -100 -63 -175 -106 -199 -71 -39 -160 1 -160 72 0 41 33 142 65 195
46 79 134 110 182 65z m2146 11 c51 -20 41 -98 -16 -127 -38 -20 -177 -32
-177 -15 0 6 11 34 25 62 39 75 101 105 168 80z"/>
</g>
</svg>
